<svg width="177" height="177" viewBox="0 0 177 177" fill="none" xmlns="http://www.w3.org/2000/svg">
<path d="M118 118L88.5 88.5L59 118" stroke="black" stroke-width="10" stroke-linecap="round" stroke-linejoin="round"/>
<path d="M88.5 88.5V154.875" stroke="black" stroke-width="10" stroke-linecap="round" stroke-linejoin="round"/>
<path d="M150.379 135.626C157.573 131.705 163.255 125.499 166.53 117.99C169.805 110.48 170.485 102.094 168.464 94.1543C166.444 86.2148 161.836 79.1743 155.37 74.1441C148.903 69.1139 140.946 66.3804 132.753 66.3749H123.461C121.228 57.7406 117.068 49.7247 111.292 42.9298C105.515 36.1349 98.2739 30.7378 90.1117 27.1444C81.9494 23.551 73.0787 21.8547 64.1665 22.1831C55.2544 22.5114 46.5326 24.8559 38.6569 29.0402C30.7812 33.2245 23.9565 39.1398 18.696 46.3414C13.4355 53.5429 9.87602 61.8433 8.28516 70.6185C6.6943 79.3937 7.11346 88.4153 9.51113 97.0052C11.9088 105.595 16.2226 113.53 22.1282 120.212" stroke="black" stroke-width="10" stroke-linecap="round" stroke-linejoin="round"/>
<path d="M118 118L88.5 88.5L59 118" stroke="black" stroke-width="10" stroke-linecap="round" stroke-linejoin="round"/>
</svg>
